<mxfile host="app.diagrams.net" modified="2021-05-30T19:49:16.859Z" agent="5.0 (Windows NT 10.0; Win64; x64) AppleWebKit/537.36 (KHTML, like Gecko) Chrome/90.0.4430.212 Safari/537.36" etag="3VrpSlX9-BkYYeq9JRSY" version="14.7.3" type="github">
  <diagram id="NQ2y3-Jp3a3tGIgz0cb_" name="Page-1">
    <mxGraphModel dx="868" dy="450" grid="1" gridSize="10" guides="1" tooltips="1" connect="1" arrows="1" fold="1" page="1" pageScale="1" pageWidth="827" pageHeight="1169" math="0" shadow="0">
      <root>
        <mxCell id="0" />
        <mxCell id="1" parent="0" />
        <mxCell id="H_MT7qEcsAcoWNwdOziI-13" style="edgeStyle=orthogonalEdgeStyle;rounded=1;orthogonalLoop=1;jettySize=auto;html=1;exitX=1;exitY=1;exitDx=0;exitDy=0;exitPerimeter=0;entryX=0;entryY=0.5;entryDx=0;entryDy=0;" edge="1" parent="1" source="H_MT7qEcsAcoWNwdOziI-1" target="H_MT7qEcsAcoWNwdOziI-9">
          <mxGeometry relative="1" as="geometry">
            <Array as="points">
              <mxPoint x="183" y="320" />
              <mxPoint x="183" y="315" />
            </Array>
          </mxGeometry>
        </mxCell>
        <mxCell id="H_MT7qEcsAcoWNwdOziI-15" style="edgeStyle=orthogonalEdgeStyle;rounded=1;orthogonalLoop=1;jettySize=auto;html=1;exitX=1;exitY=0.3333333333333333;exitDx=0;exitDy=0;exitPerimeter=0;entryX=0;entryY=0.5;entryDx=0;entryDy=0;" edge="1" parent="1" source="H_MT7qEcsAcoWNwdOziI-1" target="H_MT7qEcsAcoWNwdOziI-7">
          <mxGeometry relative="1" as="geometry">
            <Array as="points">
              <mxPoint x="90" y="90" />
              <mxPoint x="275" y="90" />
            </Array>
          </mxGeometry>
        </mxCell>
        <mxCell id="H_MT7qEcsAcoWNwdOziI-16" style="edgeStyle=orthogonalEdgeStyle;rounded=1;orthogonalLoop=1;jettySize=auto;html=1;exitX=0.5;exitY=0.5;exitDx=0;exitDy=0;exitPerimeter=0;entryX=0;entryY=0.5;entryDx=0;entryDy=0;" edge="1" parent="1" source="H_MT7qEcsAcoWNwdOziI-1" target="H_MT7qEcsAcoWNwdOziI-8">
          <mxGeometry relative="1" as="geometry" />
        </mxCell>
        <mxCell id="H_MT7qEcsAcoWNwdOziI-1" value="Almoxarife&lt;br&gt;" style="shape=umlActor;verticalLabelPosition=bottom;verticalAlign=top;html=1;outlineConnect=0;" vertex="1" parent="1">
          <mxGeometry x="60" y="260" width="30" height="60" as="geometry" />
        </mxCell>
        <mxCell id="H_MT7qEcsAcoWNwdOziI-2" value="Sistema de Gestão de Estoque" style="swimlane;" vertex="1" parent="1">
          <mxGeometry x="110" y="10" width="450" height="610" as="geometry" />
        </mxCell>
        <mxCell id="H_MT7qEcsAcoWNwdOziI-7" value="Entrada de Materiais" style="ellipse;whiteSpace=wrap;html=1;" vertex="1" parent="H_MT7qEcsAcoWNwdOziI-2">
          <mxGeometry x="165" y="30" width="120" height="80" as="geometry" />
        </mxCell>
        <mxCell id="H_MT7qEcsAcoWNwdOziI-8" value="Controle de Materiais" style="ellipse;whiteSpace=wrap;html=1;" vertex="1" parent="H_MT7qEcsAcoWNwdOziI-2">
          <mxGeometry x="165" y="130" width="120" height="80" as="geometry" />
        </mxCell>
        <mxCell id="H_MT7qEcsAcoWNwdOziI-9" value="Saida de Materiais" style="ellipse;whiteSpace=wrap;html=1;" vertex="1" parent="H_MT7qEcsAcoWNwdOziI-2">
          <mxGeometry x="165" y="265" width="120" height="80" as="geometry" />
        </mxCell>
        <mxCell id="H_MT7qEcsAcoWNwdOziI-24" style="edgeStyle=orthogonalEdgeStyle;rounded=1;orthogonalLoop=1;jettySize=auto;html=1;exitX=0;exitY=1;exitDx=0;exitDy=0;entryX=1;entryY=0;entryDx=0;entryDy=0;jumpStyle=arc;dashed=1;" edge="1" parent="H_MT7qEcsAcoWNwdOziI-2" source="H_MT7qEcsAcoWNwdOziI-21" target="H_MT7qEcsAcoWNwdOziI-8">
          <mxGeometry relative="1" as="geometry" />
        </mxCell>
        <mxCell id="H_MT7qEcsAcoWNwdOziI-21" value="Relat ABC" style="ellipse;whiteSpace=wrap;html=1;" vertex="1" parent="H_MT7qEcsAcoWNwdOziI-2">
          <mxGeometry x="350" y="90" width="70" height="40" as="geometry" />
        </mxCell>
        <mxCell id="H_MT7qEcsAcoWNwdOziI-25" style="edgeStyle=orthogonalEdgeStyle;rounded=1;orthogonalLoop=1;jettySize=auto;html=1;exitX=0;exitY=0.5;exitDx=0;exitDy=0;entryX=1;entryY=0.5;entryDx=0;entryDy=0;jumpStyle=arc;dashed=1;" edge="1" parent="H_MT7qEcsAcoWNwdOziI-2" source="H_MT7qEcsAcoWNwdOziI-22" target="H_MT7qEcsAcoWNwdOziI-8">
          <mxGeometry relative="1" as="geometry" />
        </mxCell>
        <mxCell id="H_MT7qEcsAcoWNwdOziI-22" value="Ficha Técnica" style="ellipse;whiteSpace=wrap;html=1;" vertex="1" parent="H_MT7qEcsAcoWNwdOziI-2">
          <mxGeometry x="350" y="140" width="70" height="40" as="geometry" />
        </mxCell>
        <mxCell id="H_MT7qEcsAcoWNwdOziI-26" style="edgeStyle=orthogonalEdgeStyle;rounded=1;orthogonalLoop=1;jettySize=auto;html=1;exitX=0;exitY=1;exitDx=0;exitDy=0;entryX=1;entryY=1;entryDx=0;entryDy=0;jumpStyle=arc;dashed=1;" edge="1" parent="H_MT7qEcsAcoWNwdOziI-2" source="H_MT7qEcsAcoWNwdOziI-23" target="H_MT7qEcsAcoWNwdOziI-8">
          <mxGeometry relative="1" as="geometry" />
        </mxCell>
        <mxCell id="H_MT7qEcsAcoWNwdOziI-23" value="Relat Ent/Saida" style="ellipse;whiteSpace=wrap;html=1;" vertex="1" parent="H_MT7qEcsAcoWNwdOziI-2">
          <mxGeometry x="350" y="190" width="70" height="40" as="geometry" />
        </mxCell>
        <mxCell id="H_MT7qEcsAcoWNwdOziI-27" value="&lt;font style=&quot;font-size: 9px&quot;&gt;&amp;lt;&amp;lt;include&amp;gt;&amp;gt;&lt;/font&gt;" style="text;html=1;strokeColor=none;fillColor=none;align=center;verticalAlign=middle;whiteSpace=wrap;rounded=0;" vertex="1" parent="H_MT7qEcsAcoWNwdOziI-2">
          <mxGeometry x="300" y="110" width="40" height="20" as="geometry" />
        </mxCell>
        <mxCell id="H_MT7qEcsAcoWNwdOziI-28" value="&lt;font style=&quot;font-size: 9px&quot;&gt;&amp;lt;&amp;lt;include&amp;gt;&amp;gt;&lt;/font&gt;" style="text;html=1;strokeColor=none;fillColor=none;align=center;verticalAlign=middle;whiteSpace=wrap;rounded=0;" vertex="1" parent="H_MT7qEcsAcoWNwdOziI-2">
          <mxGeometry x="300" y="140" width="40" height="20" as="geometry" />
        </mxCell>
        <mxCell id="H_MT7qEcsAcoWNwdOziI-29" value="&lt;font style=&quot;font-size: 9px&quot;&gt;&amp;lt;&amp;lt;include&amp;gt;&amp;gt;&lt;/font&gt;" style="text;html=1;strokeColor=none;fillColor=none;align=center;verticalAlign=middle;whiteSpace=wrap;rounded=0;" vertex="1" parent="H_MT7qEcsAcoWNwdOziI-2">
          <mxGeometry x="300" y="180" width="40" height="20" as="geometry" />
        </mxCell>
        <mxCell id="H_MT7qEcsAcoWNwdOziI-30" style="edgeStyle=orthogonalEdgeStyle;rounded=1;orthogonalLoop=1;jettySize=auto;html=1;exitX=0.5;exitY=1;exitDx=0;exitDy=0;dashed=1;" edge="1" parent="H_MT7qEcsAcoWNwdOziI-2" source="H_MT7qEcsAcoWNwdOziI-23" target="H_MT7qEcsAcoWNwdOziI-23">
          <mxGeometry relative="1" as="geometry" />
        </mxCell>
        <mxCell id="H_MT7qEcsAcoWNwdOziI-32" style="edgeStyle=orthogonalEdgeStyle;rounded=1;orthogonalLoop=1;jettySize=auto;html=1;exitX=1;exitY=1;exitDx=0;exitDy=0;entryX=0.016;entryY=0.306;entryDx=0;entryDy=0;entryPerimeter=0;dashed=1;" edge="1" parent="H_MT7qEcsAcoWNwdOziI-2" source="H_MT7qEcsAcoWNwdOziI-31" target="H_MT7qEcsAcoWNwdOziI-8">
          <mxGeometry relative="1" as="geometry" />
        </mxCell>
        <mxCell id="H_MT7qEcsAcoWNwdOziI-31" value="Catalogar Material" style="ellipse;whiteSpace=wrap;html=1;" vertex="1" parent="H_MT7qEcsAcoWNwdOziI-2">
          <mxGeometry x="40" y="100" width="70" height="40" as="geometry" />
        </mxCell>
        <mxCell id="H_MT7qEcsAcoWNwdOziI-33" value="&lt;font style=&quot;font-size: 9px&quot;&gt;&amp;lt;&amp;lt;include&amp;gt;&amp;gt;&lt;/font&gt;" style="text;html=1;strokeColor=none;fillColor=none;align=center;verticalAlign=middle;whiteSpace=wrap;rounded=0;" vertex="1" parent="H_MT7qEcsAcoWNwdOziI-2">
          <mxGeometry x="120" y="110" width="40" height="20" as="geometry" />
        </mxCell>
        <mxCell id="H_MT7qEcsAcoWNwdOziI-35" style="edgeStyle=orthogonalEdgeStyle;rounded=1;orthogonalLoop=1;jettySize=auto;html=1;exitX=0;exitY=0;exitDx=0;exitDy=0;entryX=0.5;entryY=1;entryDx=0;entryDy=0;dashed=1;" edge="1" parent="H_MT7qEcsAcoWNwdOziI-2" source="H_MT7qEcsAcoWNwdOziI-34" target="H_MT7qEcsAcoWNwdOziI-9">
          <mxGeometry relative="1" as="geometry" />
        </mxCell>
        <mxCell id="H_MT7qEcsAcoWNwdOziI-34" value="Descarte" style="ellipse;whiteSpace=wrap;html=1;" vertex="1" parent="H_MT7qEcsAcoWNwdOziI-2">
          <mxGeometry x="260" y="380" width="70" height="40" as="geometry" />
        </mxCell>
        <mxCell id="H_MT7qEcsAcoWNwdOziI-12" style="edgeStyle=orthogonalEdgeStyle;rounded=1;orthogonalLoop=1;jettySize=auto;html=1;exitX=0;exitY=0.3333333333333333;exitDx=0;exitDy=0;exitPerimeter=0;" edge="1" parent="1" source="H_MT7qEcsAcoWNwdOziI-5" target="H_MT7qEcsAcoWNwdOziI-9">
          <mxGeometry relative="1" as="geometry" />
        </mxCell>
        <mxCell id="H_MT7qEcsAcoWNwdOziI-5" value="Solicitante" style="shape=umlActor;verticalLabelPosition=bottom;verticalAlign=top;html=1;outlineConnect=0;" vertex="1" parent="1">
          <mxGeometry x="610" y="295" width="30" height="60" as="geometry" />
        </mxCell>
        <mxCell id="H_MT7qEcsAcoWNwdOziI-19" style="edgeStyle=orthogonalEdgeStyle;rounded=1;orthogonalLoop=1;jettySize=auto;html=1;exitX=0;exitY=0.3333333333333333;exitDx=0;exitDy=0;exitPerimeter=0;entryX=1;entryY=0.5;entryDx=0;entryDy=0;" edge="1" parent="1" source="H_MT7qEcsAcoWNwdOziI-11" target="H_MT7qEcsAcoWNwdOziI-7">
          <mxGeometry relative="1" as="geometry">
            <Array as="points">
              <mxPoint x="410" y="80" />
              <mxPoint x="410" y="80" />
            </Array>
          </mxGeometry>
        </mxCell>
        <mxCell id="H_MT7qEcsAcoWNwdOziI-11" value="Fornecedor" style="shape=umlActor;verticalLabelPosition=bottom;verticalAlign=top;html=1;outlineConnect=0;" vertex="1" parent="1">
          <mxGeometry x="610" y="60" width="30" height="60" as="geometry" />
        </mxCell>
        <mxCell id="H_MT7qEcsAcoWNwdOziI-36" value="&lt;font style=&quot;font-size: 9px&quot;&gt;&amp;lt;&amp;lt;extend&amp;gt;&amp;gt;&lt;/font&gt;" style="text;html=1;strokeColor=none;fillColor=none;align=center;verticalAlign=middle;whiteSpace=wrap;rounded=0;" vertex="1" parent="1">
          <mxGeometry x="390" y="355" width="40" height="20" as="geometry" />
        </mxCell>
      </root>
    </mxGraphModel>
  </diagram>
</mxfile>
